<mxfile host="65bd71144e">
    <diagram id="mlMG044Xu-iyfNQxF8Ep" name="Página-1">
        <mxGraphModel dx="1283" dy="4264" grid="1" gridSize="10" guides="1" tooltips="1" connect="1" arrows="1" fold="1" page="1" pageScale="1" pageWidth="827" pageHeight="1169" math="0" shadow="0">
            <root>
                <mxCell id="0"/>
                <mxCell id="1" parent="0"/>
                <mxCell id="3" value="&lt;font style=&quot;font-size: 11px&quot;&gt;AFS&lt;br&gt;&lt;/font&gt;&lt;font style=&quot;font-size: 11px&quot;&gt;(Asociación de Frikis de Star Wars)&lt;/font&gt;" style="text;strokeColor=none;fillColor=none;html=1;fontSize=24;fontStyle=1;verticalAlign=middle;align=center;" parent="1" vertex="1">
                    <mxGeometry x="246" y="-3180" width="168" height="2260" as="geometry"/>
                </mxCell>
                <mxCell id="7" value="" style="edgeStyle=none;html=1;fontSize=11;" parent="1" source="4" target="6" edge="1">
                    <mxGeometry relative="1" as="geometry"/>
                </mxCell>
                <mxCell id="4" value="PÁGINA&amp;nbsp;PRINCIPAL" style="shape=ext;double=1;rounded=0;whiteSpace=wrap;html=1;fontSize=11;" parent="1" vertex="1">
                    <mxGeometry x="260" y="-1990" width="120" height="80" as="geometry"/>
                </mxCell>
                <mxCell id="9" value="" style="edgeStyle=none;html=1;fontSize=11;" parent="1" source="6" target="8" edge="1">
                    <mxGeometry relative="1" as="geometry"/>
                </mxCell>
                <mxCell id="6" value="Quienes somos?" style="shape=ext;double=1;rounded=0;whiteSpace=wrap;html=1;fontSize=11;" parent="1" vertex="1">
                    <mxGeometry x="260" y="-1880" width="120" height="80" as="geometry"/>
                </mxCell>
                <mxCell id="11" value="" style="edgeStyle=none;html=1;fontSize=11;" parent="1" source="8" target="10" edge="1">
                    <mxGeometry relative="1" as="geometry"/>
                </mxCell>
                <mxCell id="13" value="" style="edgeStyle=none;html=1;fontSize=11;" parent="1" source="8" target="12" edge="1">
                    <mxGeometry relative="1" as="geometry"/>
                </mxCell>
                <mxCell id="17" style="edgeStyle=none;html=1;entryX=0.5;entryY=0;entryDx=0;entryDy=0;fontSize=11;" parent="1" source="8" target="16" edge="1">
                    <mxGeometry relative="1" as="geometry"/>
                </mxCell>
                <mxCell id="8" value="" style="rhombus;whiteSpace=wrap;html=1;fontSize=11;rounded=0;" parent="1" vertex="1">
                    <mxGeometry x="280" y="-1720" width="80" height="80" as="geometry"/>
                </mxCell>
                <mxCell id="10" value="PRODUCTOS" style="whiteSpace=wrap;html=1;fontSize=11;rounded=0;" parent="1" vertex="1">
                    <mxGeometry x="100" y="-1710" width="120" height="60" as="geometry"/>
                </mxCell>
                <mxCell id="12" value="SERVICIOS" style="whiteSpace=wrap;html=1;fontSize=11;rounded=0;" parent="1" vertex="1">
                    <mxGeometry x="420" y="-1710" width="120" height="60" as="geometry"/>
                </mxCell>
                <mxCell id="16" value="DATOS DE CONTACTO Y COPYLEFT" style="shape=ext;double=1;rounded=0;whiteSpace=wrap;html=1;fontSize=11;" parent="1" vertex="1">
                    <mxGeometry x="187" y="-1570" width="266" height="80" as="geometry"/>
                </mxCell>
            </root>
        </mxGraphModel>
    </diagram>
</mxfile>